<svg xmlns="http://www.w3.org/2000/svg" xmlns:xlink="http://www.w3.org/1999/xlink" width="454.13" height="257.462" viewBox="0 0 454.13 257.462">
  <defs>
    <filter id="Jasiri_Technologies_" x="104.68" y="59.325" width="334" height="104" filterUnits="userSpaceOnUse">
      <feOffset dy="1" input="SourceAlpha"/>
      <feGaussianBlur stdDeviation="1" result="blur"/>
      <feFlood flood-opacity="0.161"/>
      <feComposite operator="in" in2="blur"/>
      <feComposite in="SourceGraphic"/>
    </filter>
    <filter id="A_Subsidiary_of_Heru_Holdings_LTD_" x="137.107" y="122.325" width="236" height="44" filterUnits="userSpaceOnUse">
      <feOffset dy="1" input="SourceAlpha"/>
      <feGaussianBlur stdDeviation="1" result="blur-2"/>
      <feFlood flood-opacity="0.161"/>
      <feComposite operator="in" in2="blur-2"/>
      <feComposite in="SourceGraphic"/>
    </filter>
  </defs>
  <g id="Group_4" data-name="Group 4" transform="translate(-599.893 -405.038)">
    <g id="Group_6" data-name="Group 6">
      <g id="Group_3" data-name="Group 3" transform="translate(0 264.863)">
        <g transform="matrix(1, 0, 0, 1, 599.89, 140.18)" filter="url(#Jasiri_Technologies_)">
          <text id="Jasiri_Technologies_2" data-name="Jasiri Technologies
" transform="translate(107.68 100.32)" fill="#2472ed" font-size="40" font-family="Charter-Roman, Charter"><tspan x="0" y="0">Jasiri Technologies</tspan><tspan x="0" y="49"></tspan></text>
        </g>
        <path id="Path_9" data-name="Path 9" d="M44.259,0H418.9" transform="translate(624.694 256.5)" fill="none" stroke="#f2d02e" stroke-width="4"/>
        <path id="Path_8" data-name="Path 8" d="M90.954,0H456" transform="translate(587.596 201.5)" fill="none" stroke="#f2d02e" stroke-width="4"/>
        <path id="Path_3" data-name="Path 3" d="M145,0" transform="translate(793 276.175)" fill="none" stroke="#f2d02e" stroke-width="4"/>
        <path id="Path_5" data-name="Path 5" d="M145,0" transform="translate(791 179.175)" fill="none" stroke="#f2d02e" stroke-width="4"/>
        <path id="Path_6" data-name="Path 6" d="M70,0" transform="translate(828 159.175)" fill="none" stroke="#f2d02e" stroke-width="4"/>
        <path id="Path_7" data-name="Path 7" d="M35.5.462" transform="translate(845.25 139.714)" fill="none" stroke="#f2d02e" stroke-width="4"/>
        <path id="Path_4" data-name="Path 4" d="M35.5.462" transform="translate(845.25 315.175)" fill="none" stroke="#f2d02e" stroke-width="4"/>
      </g>
      <g id="Group_5" data-name="Group 5" transform="translate(10.427 346.863)">
        <g transform="matrix(1, 0, 0, 1, 589.47, 58.18)" filter="url(#A_Subsidiary_of_Heru_Holdings_LTD_)">
          <text id="A_Subsidiary_of_Heru_Holdings_LTD_2" data-name="A Subsidiary of Heru Holdings LTD
" transform="translate(141.11 139.32)" fill="#2472ed" font-size="15" font-family="Charter-Roman, Charter"><tspan x="0" y="0">A Subsidiary of Heru Holdings LTD</tspan><tspan x="0" y="19"></tspan></text>
        </g>
        <path id="Path_8-2" data-name="Path 8" d="M456,0" transform="translate(587.596 201.5)" fill="none" stroke="#f2d02e" stroke-width="4"/>
        <path id="Path_3-2" data-name="Path 3" d="M145,0" transform="translate(793 276.175)" fill="none" stroke="#f2d02e" stroke-width="4"/>
        <path id="Path_5-2" data-name="Path 5" d="M145,0" transform="translate(791 179.175)" fill="none" stroke="#f2d02e" stroke-width="4"/>
        <path id="Path_6-2" data-name="Path 6" d="M70,0" transform="translate(828 159.175)" fill="none" stroke="#f2d02e" stroke-width="4"/>
        <path id="Path_7-2" data-name="Path 7" d="M35.5.462" transform="translate(845.25 139.714)" fill="none" stroke="#f2d02e" stroke-width="4"/>
        <path id="Path_4-2" data-name="Path 4" d="M35.5.462" transform="translate(845.25 315.175)" fill="none" stroke="#f2d02e" stroke-width="4"/>
      </g>
      <g id="_310997" data-name="310997" transform="translate(599.393 1728.861)">
        <path id="Path_2" data-name="Path 2" d="M54.88-1279.907a20.63,20.63,0,0,0-3.794.851,20.673,20.673,0,0,0-6.9,4.022l-.556.522-.059-.295a15.868,15.868,0,0,1-.025-1.61c.017-.717.017-1.307,0-1.307a23.015,23.015,0,0,0-2.706,1.56,23.966,23.966,0,0,0-8.313,9.957,29.3,29.3,0,0,0-2,5.893l-.118.59-3.077-.025-3.086-.017-3.819,3.339L16.6-1253.1l-.244.826-.244.826-2.032.953c-3.389,1.593-9.367,4.586-10.825,5.413-1.155.657-1.408.843-1.627,1.163A6.572,6.572,0,0,0,.736-1242a5.519,5.519,0,0,0-.228,1.964L.5-1238.815l2.234,4.291a42.875,42.875,0,0,0,2.4,4.359c.093.034.911.127,1.813.2,3.659.32,10.294.953,10.328.987a8.489,8.489,0,0,1,.244,1.045c.118.556.236,1.113.261,1.231l.059.219-5.4-.042-5.413-.051.1.245c.337.885,1.678,4.772,1.678,4.873,0,.067-.379,1.189-.852,2.5s-.843,2.386-.826,2.395.995.093,2.175.169,2.158.143,2.167.16.346,1.037.75,2.293.75,2.293.767,2.31a9.666,9.666,0,0,0,.978-.826,12.509,12.509,0,0,1,1.012-.852c.025,0,.649.818,1.374,1.821,1.088,1.492,1.349,1.8,1.433,1.7.059-.059,1.088-1.256,2.293-2.647l2.192-2.546-.042-.43-.042-.43h2.428l4.7-4.856c2.58-2.673,4.7-4.9,4.7-4.949s-.32-1.383-.708-2.951l-.7-2.85.261-.109c.143-.059.927-.346,1.745-.641l1.484-.531.911-3.1c.5-1.7.885-3.17.868-3.254s-.852-1.964-1.83-4.182-1.779-4.047-1.762-4.064c.143-.118,3.887-2.242,3.9-2.217a17.9,17.9,0,0,1-.422,1.8l-.464,1.762,1.737,3.87,1.728,3.861-1.374,3.769-1.374,3.769-1.18.438c-.649.236-1.214.447-1.256.464a20.638,20.638,0,0,0,.54,2.5c.514,2.066.6,2.5.514,2.639-.059.093-2.664,2.968-5.8,6.4-5.548,6.079-5.7,6.23-5.961,6.188-.143-.025-.506-.084-.809-.126l-.548-.084-.371.4a58.683,58.683,0,0,0-4.662,6.23,38.561,38.561,0,0,0-6.011,15.8,40.58,40.58,0,0,0-.135,6.112,27.273,27.273,0,0,0,3.1,10.716c.481.86.615,1.02.615.725a33.941,33.941,0,0,1,.995-3.735,31.245,31.245,0,0,1,7.31-11.685l1.265-1.273-.4-.624a16.088,16.088,0,0,1-2.082-4.856,16.708,16.708,0,0,1-.54-4.907,18.166,18.166,0,0,1,.346-4.173l.143-.759.228,1.138a34.684,34.684,0,0,0,5.312,12.731,18.8,18.8,0,0,0,2.1,2.681c.11-.042,5.649-6.72,5.649-6.812a5.026,5.026,0,0,0-.489-.75,24.261,24.261,0,0,1-4.283-9.7,14.068,14.068,0,0,1-.261-2.706l-.034-1.56.641,1.475c3.33,7.723,7.386,13.363,11.77,16.381a13.853,13.853,0,0,0,2.715,1.425c.126.025.371-.548,1.492-3.431.742-1.9,1.349-3.49,1.349-3.541a1.394,1.394,0,0,0-.4-.422,45.642,45.642,0,0,1-5.4-5.556,24.75,24.75,0,0,1-4.78-8.861,11.134,11.134,0,0,1-.346-2.377,7.387,7.387,0,0,1,.59,1.079,33.919,33.919,0,0,0,13.1,14.1,34.921,34.921,0,0,0,10.387,4.064c1.256.261,1.518.27,1.518.059,0-.093.211-2.108.464-4.494s.447-4.333.438-4.342-.337-.177-.725-.371a76.269,76.269,0,0,1-7.107-4.156,41.909,41.909,0,0,1-6.9-5.615,25.558,25.558,0,0,1-3.558-4.224,18.046,18.046,0,0,1-1.492-2.824,15.955,15.955,0,0,1,1.374,1.273,64.259,64.259,0,0,0,12.916,9.94,52.8,52.8,0,0,0,17.579,6.576c1.155.177,1.13.177.978-.11a14.019,14.019,0,0,1-.674-3.052,52.155,52.155,0,0,1-.363-5.75c-.042-2.116-.067-2.428-.185-2.47-.076-.017-.607-.135-1.189-.253-9.367-1.948-17.511-5.312-23.025-9.493a25.75,25.75,0,0,1-4.519-4.375,7.982,7.982,0,0,1-.995-1.518c.025,0,.489.354,1.037.784a53.572,53.572,0,0,0,26.49,11.348c2.892.43,5.522.666,11.255,1.02,7.554.464,10.513.894,13.574,1.939,1.45.506,1.324.481,1.265.2a12.745,12.745,0,0,0-1.636-2.984,50.7,50.7,0,0,0-7.52-7.571l-.725-.607H88.932c-2.141,0-6.762-.135-8.886-.253-11.179-.632-21.786-2.673-26.937-5.185-.97-.472-1.8-1.012-1.7-1.1a2.2,2.2,0,0,1,.531.185,32.634,32.634,0,0,0,8.254,2.133c4.519.649,6.956.759,18.75.852,11.357.084,13.86.177,17.106.6a26.949,26.949,0,0,1,3.752.7,2.435,2.435,0,0,0,.733.143c0-.034-.346-.683-.767-1.45a36.5,36.5,0,0,0-4.78-6.787,19.609,19.609,0,0,0-3.1-2.824,9.15,9.15,0,0,0-4.376-1.973c-2.133-.43-3.263-.506-8.009-.506-4.241,0-5.446.042-9.569.345-4.207.3-10.379.944-15.344,1.594-.708.093,2.74-.936,5.185-1.551a92.97,92.97,0,0,1,32.923-1.813c2.04.236,5.919.877,6.728,1.1.118.034.185.017.185-.059a28.832,28.832,0,0,0-1.45-3.482,20.9,20.9,0,0,0-3.971-5.606,20.356,20.356,0,0,0-12.284-5.876,34.18,34.18,0,0,0-6.568,0,9.916,9.916,0,0,0-1.121.185c-.034.025-.067.017-.067-.025,0-.1.481-.4,1.029-.658a12.641,12.641,0,0,1,3.221-.708c.506-.05,1.931-.093,3.162-.093a42.751,42.751,0,0,1,5.219.261l.944.093,2.4-1.332c1.324-.733,2.4-1.358,2.4-1.391a20.363,20.363,0,0,0-2.841-2.234c-4.266-2.883-9.645-4.519-16.213-4.932a38.461,38.461,0,0,0-5.033.059c-.27.076-.244-.068.042-.236.826-.489,3.794-.995,7.267-1.248l1.307-.1,2.386-1.391c1.307-.776,2.378-1.425,2.378-1.459a15.86,15.86,0,0,0-2.993-1.012,37.368,37.368,0,0,0-16.036.084c-.683.135-1.248.236-1.265.228-.084-.093.329-.447.818-.691a15.89,15.89,0,0,1,3.76-1.1l1.467-.3,1.18-.9a12.06,12.06,0,0,0,1.138-.927,14.865,14.865,0,0,0-2.192-.5,44.4,44.4,0,0,0-7.04-.042,50.577,50.577,0,0,0-6.087,1.079c-.388.118-.025-.8.725-1.838.211-.3.666-.86,1.012-1.273l.641-.733-.691.008C55.866-1279.983,55.251-1279.95,54.88-1279.907Zm-8.844,13.127c.16.109.261.379.413,1.1a19.438,19.438,0,0,1,.438,4.013,16.5,16.5,0,0,1-.835,6.323,15.3,15.3,0,0,1-1.627,3.347l-.3.4H42.739c-1.273,0-1.568-.05-1.307-.211a9.2,9.2,0,0,0,1.054-2.268,24.221,24.221,0,0,0,.877-4.266c.143-1.121.346-3.339.346-3.819,0-.109-.573.236-2.209,1.349-4.89,3.313-4.418,3.018-4.654,2.858-.27-.169-.278-.455-.051-.953.986-2.192,5.851-6.88,8.06-7.773A1.784,1.784,0,0,1,46.036-1266.78Zm-22.494,16.516c-1.964,2.3-4.907,5.59-4.957,5.531-.329-.337-2.512-3.28-2.462-3.322.034-.034,1.273-.422,2.757-.869s3.153-.969,3.71-1.147,1.029-.329,1.045-.329S23.609-1250.34,23.542-1250.264ZM6.95-1240.678c0,.034-1.771,4.654-1.956,5.109-.084.194-.185.017-1.121-1.9-.573-1.163-1.029-2.116-1.029-2.125.017-.017,3.963-1.1,4.047-1.113C6.924-1240.712,6.95-1240.695,6.95-1240.678Z" fill="#fdcf32"/>
      </g>
    </g>
  </g>
</svg>
